<?xml version="1.0" standalone="no"?>
<!DOCTYPE svg PUBLIC "-//W3C//DTD SVG 20010904//EN"
 "http://www.w3.org/TR/2001/REC-SVG-20010904/DTD/svg10.dtd">
<svg version="1.0" xmlns="http://www.w3.org/2000/svg"
 width="247.000000pt" height="204.000000pt" viewBox="0 0 247.000000 204.000000"
 preserveAspectRatio="xMidYMid meet">
<metadata>
Created by potrace 1.10, written by Peter Selinger 2001-2011
</metadata>
<g transform="translate(0.000000,204.000000) scale(0.100000,-0.100000)"
fill="#c9c9c7" stroke="none">
<path d="M1580 2006 c-177 -50 -316 -191 -360 -369 -7 -27 -11 -87 -8 -141 l4
-94 -56 5 c-352 32 -688 202 -932 470 -53 59 -53 59 -84 -29 -67 -191 -15
-402 133 -538 52 -47 62 -60 43 -56 -14 3 -49 10 -78 16 -29 5 -71 19 -92 30
l-40 20 0 -33 c0 -102 60 -236 146 -324 62 -64 183 -133 231 -133 13 0 23 -4
23 -9 0 -13 -122 -25 -176 -17 -29 4 -44 2 -44 -5 0 -6 14 -38 31 -70 37 -70
109 -147 176 -189 57 -37 160 -70 215 -70 26 0 38 -4 36 -12 -6 -18 -171 -114
-246 -142 -139 -53 -308 -80 -430 -70 l-57 5 60 -35 c367 -217 883 -246 1289
-71 482 208 819 711 843 1261 l6 121 61 53 c50 43 186 192 186 204 0 2 -26 -7
-57 -20 -32 -13 -92 -31 -133 -40 -41 -9 -78 -19 -82 -23 -14 -12 56 -12 105
0 26 6 51 8 55 5 3 -4 -31 -44 -76 -89 l-82 -82 0 -60 c0 -82 -24 -254 -49
-354 -89 -358 -346 -707 -646 -878 -139 -80 -298 -139 -451 -169 -136 -27
-398 -25 -529 4 -95 21 -178 47 -255 79 -106 44 -113 59 -33 68 190 22 335 72
476 167 87 59 79 81 -38 108 -114 27 -236 112 -303 212 -34 52 -25 68 38 68
56 0 124 24 118 41 -4 12 -82 59 -99 59 -20 0 -127 80 -164 122 -45 52 -101
163 -110 219 l-7 42 43 -8 c64 -11 162 -12 166 0 1 6 -26 43 -62 83 -133 149
-174 305 -125 466 23 73 31 75 74 21 36 -45 187 -168 272 -222 180 -113 422
-198 627 -219 95 -10 107 2 100 99 -10 138 40 267 145 372 90 91 214 145 331
145 88 0 224 -52 291 -110 56 -49 109 -55 193 -22 15 7 27 9 27 6 0 -4 6 -2
13 3 6 6 27 15 45 21 25 9 32 8 32 -2 0 -14 -63 -100 -83 -113 -6 -5 -25 -23
-42 -42 l-30 -34 44 24 c24 13 63 46 87 73 43 50 110 163 101 172 -2 3 -20 -4
-38 -15 -44 -26 -128 -59 -208 -82 l-64 -18 -46 40 c-115 102 -303 146 -451
105z"/>
</g>
</svg>
